<?xml version="1.0" standalone="no"?>
<!DOCTYPE svg PUBLIC "-//W3C//DTD SVG 1.1//EN"
"http://www.w3.org/Graphics/SVG/1.1/DTD/svg11.dtd">

<svg width="457" height="388" view_box="0 0 457 388"
xmlns="http://www.w3.org/2000/svg"
xmlns:link="http://www.w3.org/1999/xlink">\n\n<desc>Généré par Mocodo 2.3.7 le Mon, 16 May 2022 06:07:15</desc>

<rect id="frame" x="0" y="0" width="457" height="388" fill="#f7f7f7" stroke="none" stroke-width="0"/>

<!-- Association writes -->
<line x1="298" y1="51" x2="404" y2="51" stroke="#9970ab" stroke-width="2"/>
<text x="346" y="68.0" fill="#1b7837" font-family="Verdana" font-size="12">1,1</text>
<line x1="404" y1="194" x2="404" y2="51" stroke="#9970ab" stroke-width="2"/>
<text x="409.0" y="110" fill="#1b7837" font-family="Verdana" font-size="12">0,N</text>
<g id="association-writes">
	<path d="M 416 26 a 14 14 90 0 1 14 14 V 51 h -52 V 40 a 14 14 90 0 1 14 -14" fill="#c2a5cf" stroke="#c2a5cf" stroke-width="0"/>
	<path d="M 430 51.0 v 11 a 14 14 90 0 1 -14 14 H 392 a 14 14 90 0 1 -14 -14 V 51.0 H 52" fill="#e7d4e8" stroke="#e7d4e8" stroke-width="0"/>
	<rect x="378" y="26" width="52" height="50" fill="none" rx="14" stroke="#9970ab" stroke-width="2"/>
	<line x1="378" y1="51" x2="430" y2="51" stroke="#9970ab" stroke-width="1"/>
	<text x="385" y="43.7" fill="#000000" font-family="Verdana" font-size="12">writes</text>
</g>

<!-- Association comments -->
<line x1="298" y1="51" x2="180" y2="51" stroke="#9970ab" stroke-width="2"/>
<text x="229" y="68.0" fill="#1b7837" font-family="Verdana" font-size="12">1,1</text>
<line x1="180" y1="194" x2="180" y2="51" stroke="#9970ab" stroke-width="2"/>
<text x="185.0" y="110" fill="#1b7837" font-family="Verdana" font-size="12">0,N</text>
<g id="association-comments">
	<path d="M 205 26 a 14 14 90 0 1 14 14 V 51 h -78 V 40 a 14 14 90 0 1 14 -14" fill="#c2a5cf" stroke="#c2a5cf" stroke-width="0"/>
	<path d="M 219 51.0 v 11 a 14 14 90 0 1 -14 14 H 155 a 14 14 90 0 1 -14 -14 V 51.0 H 78" fill="#e7d4e8" stroke="#e7d4e8" stroke-width="0"/>
	<rect x="141" y="26" width="78" height="50" fill="none" rx="14" stroke="#9970ab" stroke-width="2"/>
	<line x1="141" y1="51" x2="219" y2="51" stroke="#9970ab" stroke-width="1"/>
	<text x="148" y="43.7" fill="#000000" font-family="Verdana" font-size="12">comments</text>
</g>

<!-- Association creates -->
<line x1="180" y1="194" x2="298" y2="194" stroke="#9970ab" stroke-width="2"/>
<text x="241" y="211.0" fill="#1b7837" font-family="Verdana" font-size="12">1,1</text>
<line x1="404" y1="194" x2="298" y2="194" stroke="#9970ab" stroke-width="2"/>
<text x="333" y="211.0" fill="#1b7837" font-family="Verdana" font-size="12">0,N</text>
<g id="association-creates">
	<path d="M 314 169 a 14 14 90 0 1 14 14 V 194 h -60 V 183 a 14 14 90 0 1 14 -14" fill="#c2a5cf" stroke="#c2a5cf" stroke-width="0"/>
	<path d="M 328 194.0 v 11 a 14 14 90 0 1 -14 14 H 282 a 14 14 90 0 1 -14 -14 V 194.0 H 60" fill="#e7d4e8" stroke="#e7d4e8" stroke-width="0"/>
	<rect x="268" y="169" width="60" height="50" fill="none" rx="14" stroke="#9970ab" stroke-width="2"/>
	<line x1="268" y1="194" x2="328" y2="194" stroke="#9970ab" stroke-width="1"/>
	<text x="275" y="186.7" fill="#000000" font-family="Verdana" font-size="12">creates</text>
</g>

<!-- Association uses -->
<line x1="59" y1="337" x2="180" y2="337" stroke="#9970ab" stroke-width="2"/>
<text x="109" y="354.0" fill="#1b7837" font-family="Verdana" font-size="12">0,N</text>
<line x1="180" y1="194" x2="180" y2="337" stroke="#9970ab" stroke-width="2"/>
<text x="185.0" y="287" fill="#1b7837" font-family="Verdana" font-size="12">1,N</text>
<g id="association-uses">
	<path d="M 187 312 a 14 14 90 0 1 14 14 V 337 h -42 V 326 a 14 14 90 0 1 14 -14" fill="#c2a5cf" stroke="#c2a5cf" stroke-width="0"/>
	<path d="M 201 337.0 v 11 a 14 14 90 0 1 -14 14 H 173 a 14 14 90 0 1 -14 -14 V 337.0 H 42" fill="#e7d4e8" stroke="#e7d4e8" stroke-width="0"/>
	<rect x="159" y="312" width="42" height="50" fill="none" rx="14" stroke="#9970ab" stroke-width="2"/>
	<line x1="159" y1="337" x2="201" y2="337" stroke="#9970ab" stroke-width="1"/>
	<text x="166" y="329.7" fill="#000000" font-family="Verdana" font-size="12">uses</text>
</g>

<!-- Association has -->
<line x1="404" y1="194" x2="404" y2="337" stroke="#9970ab" stroke-width="2"/>
<text x="409.0" y="287" fill="#1b7837" font-family="Verdana" font-size="12">1,1</text>
<line x1="298" y1="337" x2="404" y2="337" stroke="#9970ab" stroke-width="2"/>
<text x="335" y="354.0" fill="#1b7837" font-family="Verdana" font-size="12">0,N</text>
<g id="association-has">
	<path d="M 408 312 a 14 14 90 0 1 14 14 V 337 h -36 V 326 a 14 14 90 0 1 14 -14" fill="#c2a5cf" stroke="#c2a5cf" stroke-width="0"/>
	<path d="M 422 337.0 v 11 a 14 14 90 0 1 -14 14 H 400 a 14 14 90 0 1 -14 -14 V 337.0 H 36" fill="#e7d4e8" stroke="#e7d4e8" stroke-width="0"/>
	<rect x="386" y="312" width="36" height="50" fill="none" rx="14" stroke="#9970ab" stroke-width="2"/>
	<line x1="386" y1="337" x2="422" y2="337" stroke="#9970ab" stroke-width="1"/>
	<text x="393" y="329.7" fill="#000000" font-family="Verdana" font-size="12">has</text>
</g>

<!-- Association defines -->
<line x1="59" y1="51" x2="59" y2="194" stroke="#9970ab" stroke-width="2"/>
<text x="64.0" y="110" fill="#1b7837" font-family="Verdana" font-size="12">0,N</text>
<line x1="180" y1="194" x2="59" y2="194" stroke="#9970ab" stroke-width="2"/>
<text x="97" y="211.0" fill="#1b7837" font-family="Verdana" font-size="12">1,N</text>
<g id="association-defines">
	<path d="M 74 169 a 14 14 90 0 1 14 14 V 194 h -58 V 183 a 14 14 90 0 1 14 -14" fill="#c2a5cf" stroke="#c2a5cf" stroke-width="0"/>
	<path d="M 88 194.0 v 11 a 14 14 90 0 1 -14 14 H 44 a 14 14 90 0 1 -14 -14 V 194.0 H 58" fill="#e7d4e8" stroke="#e7d4e8" stroke-width="0"/>
	<rect x="30" y="169" width="58" height="50" fill="none" rx="14" stroke="#9970ab" stroke-width="2"/>
	<line x1="30" y1="194" x2="88" y2="194" stroke="#9970ab" stroke-width="1"/>
	<text x="37" y="186.7" fill="#000000" font-family="Verdana" font-size="12">defines</text>
</g>

<!-- Entity COMMENT -->
<g id="entity-COMMENT">
	<g id="frame-COMMENT">
		<rect x="255" y="17" width="86" height="25" fill="#a6dba0" stroke="#a6dba0" stroke-width="0"/>
		<rect x="255" y="42.0" width="86" height="43" fill="#d9f0d3" stroke="#d9f0d3" stroke-width="0"/>
		<rect x="255" y="17" width="86" height="68" fill="none" stroke="#5aae61" stroke-width="2"/>
		<line x1="255" y1="42" x2="341" y2="42" stroke="#5aae61" stroke-width="1"/>
	</g>
	<text x="266" y="34.7" fill="#000000" font-family="Verdana" font-size="12">COMMENT</text>
	<text x="260" y="59.8" fill="#000000" font-family="Verdana" font-size="12">comment_id</text>
	<line x1="260" y1="62" x2="336" y2="62" stroke="#000000" stroke-width="1"/>
	<text x="260" y="76.8" fill="#000000" font-family="Verdana" font-size="12">content</text>
</g>

<!-- Entity RECIPE_TYPE -->
<g id="entity-RECIPE_TYPE">
	<g id="frame-RECIPE_TYPE">
		<rect x="9" y="9" width="100" height="25" fill="#a6dba0" stroke="#a6dba0" stroke-width="0"/>
		<rect x="9" y="34.0" width="100" height="59" fill="#d9f0d3" stroke="#d9f0d3" stroke-width="0"/>
		<rect x="9" y="9" width="100" height="84" fill="none" stroke="#5aae61" stroke-width="2"/>
		<line x1="9" y1="34" x2="109" y2="34" stroke="#5aae61" stroke-width="1"/>
	</g>
	<text x="18" y="26.7" fill="#000000" font-family="Verdana" font-size="12">RECIPE_TYPE</text>
	<text x="14" y="51.8" fill="#000000" font-family="Verdana" font-size="12">recipe_type_id</text>
	<line x1="14" y1="54" x2="104" y2="54" stroke="#000000" stroke-width="1"/>
	<text x="14" y="68.8" fill="#000000" font-family="Verdana" font-size="12">name</text>
	<text x="14" y="85.8" fill="#000000" font-family="Verdana" font-size="12">slug</text>
</g>

<!-- Entity RECIPE -->
<g id="entity-RECIPE">
	<g id="frame-RECIPE">
		<rect x="124" y="118" width="112" height="25" fill="#a6dba0" stroke="#a6dba0" stroke-width="0"/>
		<rect x="124" y="143.0" width="112" height="127" fill="#d9f0d3" stroke="#d9f0d3" stroke-width="0"/>
		<rect x="124" y="118" width="112" height="152" fill="none" stroke="#5aae61" stroke-width="2"/>
		<line x1="124" y1="143" x2="236" y2="143" stroke="#5aae61" stroke-width="1"/>
	</g>
	<text x="157" y="135.7" fill="#000000" font-family="Verdana" font-size="12">RECIPE</text>
	<text x="129" y="160.7" fill="#000000" font-family="Verdana" font-size="12">recipe_id</text>
	<line x1="129" y1="163" x2="185" y2="163" stroke="#000000" stroke-width="1"/>
	<text x="129" y="177.7" fill="#000000" font-family="Verdana" font-size="12">title</text>
	<text x="129" y="194.8" fill="#000000" font-family="Verdana" font-size="12">picture</text>
	<text x="129" y="211.8" fill="#000000" font-family="Verdana" font-size="12">abstract</text>
	<text x="129" y="228.8" fill="#000000" font-family="Verdana" font-size="12">content</text>
	<text x="129" y="245.8" fill="#000000" font-family="Verdana" font-size="12">cooking_time</text>
	<text x="129" y="262.8" fill="#000000" font-family="Verdana" font-size="12">cost_per_person</text>
</g>

<!-- Entity ROLE -->
<g id="entity-ROLE">
	<g id="frame-ROLE">
		<rect x="266" y="303" width="64" height="25" fill="#a6dba0" stroke="#a6dba0" stroke-width="0"/>
		<rect x="266" y="328.0" width="64" height="43" fill="#d9f0d3" stroke="#d9f0d3" stroke-width="0"/>
		<rect x="266" y="303" width="64" height="68" fill="none" stroke="#5aae61" stroke-width="2"/>
		<line x1="266" y1="328" x2="330" y2="328" stroke="#5aae61" stroke-width="1"/>
	</g>
	<text x="281" y="320.7" fill="#000000" font-family="Verdana" font-size="12">ROLE</text>
	<text x="271" y="345.8" fill="#000000" font-family="Verdana" font-size="12">role_key</text>
	<line x1="271" y1="348" x2="324" y2="348" stroke="#000000" stroke-width="1"/>
	<text x="271" y="362.8" fill="#000000" font-family="Verdana" font-size="12">name</text>
</g>

<!-- Entity USER -->
<g id="entity-USER">
	<g id="frame-USER">
		<rect x="360" y="118" width="88" height="25" fill="#a6dba0" stroke="#a6dba0" stroke-width="0"/>
		<rect x="360" y="143.0" width="88" height="127" fill="#d9f0d3" stroke="#d9f0d3" stroke-width="0"/>
		<rect x="360" y="118" width="88" height="152" fill="none" stroke="#5aae61" stroke-width="2"/>
		<line x1="360" y1="143" x2="448" y2="143" stroke="#5aae61" stroke-width="1"/>
	</g>
	<text x="387" y="135.7" fill="#000000" font-family="Verdana" font-size="12">USER</text>
	<text x="365" y="160.7" fill="#000000" font-family="Verdana" font-size="12">user_id</text>
	<line x1="365" y1="163" x2="411" y2="163" stroke="#000000" stroke-width="1"/>
	<text x="365" y="177.7" fill="#000000" font-family="Verdana" font-size="12">email</text>
	<text x="365" y="194.8" fill="#000000" font-family="Verdana" font-size="12">password</text>
	<text x="365" y="211.8" fill="#000000" font-family="Verdana" font-size="12">firstname</text>
	<text x="365" y="228.8" fill="#000000" font-family="Verdana" font-size="12">lastname</text>
	<text x="365" y="245.8" fill="#000000" font-family="Verdana" font-size="12">displayname</text>
	<text x="365" y="262.8" fill="#000000" font-family="Verdana" font-size="12">picture</text>
</g>

<!-- Entity INGREDIENT -->
<g id="entity-INGREDIENT">
	<g id="frame-INGREDIENT">
		<rect x="14" y="295" width="90" height="25" fill="#a6dba0" stroke="#a6dba0" stroke-width="0"/>
		<rect x="14" y="320.0" width="90" height="59" fill="#d9f0d3" stroke="#d9f0d3" stroke-width="0"/>
		<rect x="14" y="295" width="90" height="84" fill="none" stroke="#5aae61" stroke-width="2"/>
		<line x1="14" y1="320" x2="104" y2="320" stroke="#5aae61" stroke-width="1"/>
	</g>
	<text x="19" y="312.7" fill="#000000" font-family="Verdana" font-size="12">INGREDIENT</text>
	<text x="19" y="337.8" fill="#000000" font-family="Verdana" font-size="12">ingredient_id</text>
	<line x1="19" y1="340" x2="99" y2="340" stroke="#000000" stroke-width="1"/>
	<text x="19" y="354.8" fill="#000000" font-family="Verdana" font-size="12">name</text>
	<text x="19" y="371.8" fill="#000000" font-family="Verdana" font-size="12">slug</text>
</g>
</svg>